<svg width="20" height="18" viewBox="0 0 20 18" fill="none" xmlns="http://www.w3.org/2000/svg">
<path d="M17.1154 0.730713H2.88461C1.29402 0.730713 0 2.02474 0 3.61532V14.3845C0 15.9751 1.29402 17.2691 2.88461 17.2691H17.1154C18.706 17.2691 20 15.9751 20 14.3845V3.61532C20 2.02474 18.706 0.730713 17.1154 0.730713ZM18.8462 10.7307H14.6154C13.6611 10.7307 12.8846 9.95431 12.8846 8.99993C12.8846 8.04556 13.661 7.26915 14.6154 7.26915H18.8462V10.7307ZM18.8462 6.11532H14.6154C13.0248 6.11532 11.7308 7.40935 11.7308 8.99993C11.7308 10.5905 13.0248 11.8845 14.6154 11.8845H18.8462V14.3845C18.8462 15.3389 18.0698 16.1153 17.1154 16.1153H2.88461C1.93027 16.1153 1.15383 15.3389 1.15383 14.3845V3.61532C1.15383 2.66099 1.93023 1.88454 2.88461 1.88454H17.1154C18.0697 1.88454 18.8462 2.66095 18.8462 3.61532V6.11532Z" fill="white"/>
<path d="M15.9231 8.36548H15.077C14.7265 8.36548 14.4424 8.64963 14.4424 9.00008C14.4424 9.35057 14.7265 9.63468 15.077 9.63468H15.9231C16.2736 9.63468 16.5577 9.35053 16.5577 9.00008C16.5577 8.64958 16.2736 8.36548 15.9231 8.36548Z" fill="white"/>
</svg>
