<svg width="18" height="16" viewBox="0 0 18 16" fill="none" xmlns="http://www.w3.org/2000/svg">
<path d="M17.25 7.24994H2.28787L8.01713 1.79294C8.31713 1.50719 8.32875 1.03244 8.043 0.732439C7.75763 0.432814 7.28288 0.420814 6.9825 0.706564L0.4395 6.93907C0.156375 7.22257 0 7.59907 0 7.99994C0 8.40044 0.156375 8.77732 0.452625 9.07319L6.98287 15.2929C7.128 15.4313 7.314 15.4999 7.5 15.4999C7.698 15.4999 7.896 15.4219 8.04338 15.2671C8.32912 14.9671 8.3175 14.4927 8.0175 14.2069L2.26425 8.74994H17.25C17.664 8.74994 18 8.41394 18 7.99994C18 7.58594 17.664 7.24994 17.25 7.24994Z" fill="white"/>
</svg>
