<svg width="18" height="16" viewBox="0 0 18 16" fill="none" xmlns="http://www.w3.org/2000/svg">
<path d="M16.111 2.96039e-06C15.1312 -0.00176789 14.3354 0.791159 14.3336 1.77107C14.3328 2.23291 14.5121 2.67691 14.8334 3.00865L11.5854 9.50356C11.5142 9.49175 11.4423 9.48442 11.3702 9.48165C11.1407 9.4821 10.9135 9.5272 10.7012 9.61439L8.17969 6.7788C8.32688 6.51856 8.40521 6.22504 8.40726 5.92605C8.40726 4.9442 7.61131 4.14825 6.62946 4.14825C5.64761 4.14825 4.85166 4.9442 4.85166 5.92605C4.8534 6.35043 5.0083 6.75991 5.28781 7.07926L2.20628 12.4766C2.10156 12.4565 1.99527 12.4457 1.88864 12.4446C0.906787 12.4446 0.11084 13.2405 0.11084 14.2224C0.11084 15.2043 0.906787 16.0002 1.88864 16.0002C2.87049 16.0002 3.66644 15.2043 3.66644 14.2224C3.6647 13.798 3.50981 13.3885 3.23029 13.0692L6.31182 7.6718C6.64262 7.73715 6.9854 7.70208 7.29614 7.57107L9.81766 10.4067C9.6713 10.6671 9.59377 10.9606 9.59248 11.2594C9.58953 12.2413 10.383 13.0396 11.3649 13.0426C12.3468 13.0455 13.1451 12.252 13.148 11.2701C13.1494 10.8069 12.97 10.3615 12.6479 10.0286L15.8959 3.53369C15.9671 3.5455 16.039 3.55282 16.111 3.5556C17.0929 3.5556 17.8888 2.75965 17.8888 1.7778C17.8888 0.79595 17.0929 2.96039e-06 16.111 2.96039e-06ZM1.88864 14.815C1.56134 14.815 1.29603 14.5497 1.29603 14.2224C1.29603 13.8951 1.56134 13.6298 1.88864 13.6298C2.21594 13.6298 2.48125 13.8951 2.48125 14.2224C2.48125 14.5497 2.21594 14.815 1.88864 14.815ZM6.62943 6.51859C6.30213 6.51859 6.03682 6.25327 6.03682 5.92598C6.03682 5.59868 6.30213 5.33337 6.62943 5.33337C6.95672 5.33337 7.22204 5.59868 7.22204 5.92598C7.22204 6.25327 6.95672 6.51859 6.62943 6.51859ZM11.3702 11.852C11.043 11.852 10.7776 11.5867 10.7776 11.2594C10.7776 10.9321 11.043 10.6668 11.3702 10.6668C11.6975 10.6668 11.9629 10.9321 11.9629 11.2594C11.9628 11.5867 11.6975 11.852 11.3702 11.852ZM16.111 2.37041C15.7837 2.37041 15.5184 2.1051 15.5184 1.7778C15.5184 1.45051 15.7837 1.18519 16.111 1.18519C16.4383 1.18519 16.7036 1.45051 16.7036 1.7778C16.7036 2.1051 16.4383 2.37041 16.111 2.37041Z" fill="white"/>
</svg>
