<svg width="15" height="18" viewBox="0 0 15 18" fill="none" xmlns="http://www.w3.org/2000/svg">
<path d="M7.5 9C8.7364 9 9.80687 8.55654 10.6818 7.6816C11.5564 6.8068 12 5.73643 12 4.49986C12 3.26371 11.5566 2.1932 10.6816 1.31811C9.80673 0.443457 8.73625 0 7.5 0C6.26346 0 5.19313 0.443457 4.31836 1.31826C3.44359 2.19305 3 3.26357 3 4.49986C3 5.73643 3.44359 6.80695 4.31836 7.68174C5.19341 8.5564 6.26389 9 7.5 9ZM5.09264 2.09242C5.76386 1.42117 6.55125 1.09489 7.5 1.09489C8.44861 1.09489 9.23614 1.42117 9.90751 2.09242C10.5787 2.7638 10.9051 3.55136 10.9051 4.49986C10.9051 5.44864 10.5787 6.23605 9.90751 6.90744C9.23614 7.57883 8.44861 7.90511 7.5 7.90511C6.55154 7.90511 5.76414 7.57868 5.09264 6.90744C4.42127 6.2362 4.09485 5.44864 4.09485 4.49986C4.09485 3.55136 4.42127 2.7638 5.09264 2.09242Z" fill="white"/>
<path d="M14.9636 13.9776C14.9394 13.6383 14.8903 13.2683 14.818 12.8775C14.745 12.4838 14.651 12.1117 14.5386 11.7715C14.4222 11.4199 14.2644 11.0727 14.0689 10.74C13.8663 10.3946 13.6282 10.0939 13.361 9.84649C13.0816 9.58761 12.7395 9.37948 12.3439 9.22766C11.9496 9.07664 11.5127 9.00013 11.0454 9.00013C10.8619 9.00013 10.6844 9.07305 10.3416 9.28916C10.1306 9.42238 9.88386 9.57645 9.60843 9.74687C9.37291 9.89218 9.05385 10.0283 8.65977 10.1516C8.27528 10.2721 7.8849 10.3332 7.49945 10.3332C7.11428 10.3332 6.7239 10.2721 6.33914 10.1516C5.94546 10.0285 5.62627 9.89231 5.39116 9.747C5.11833 9.57818 4.87143 9.42411 4.65731 9.28902C4.31479 9.07292 4.1373 9 3.95376 9C3.48629 9 3.04955 9.07664 2.65546 9.22779C2.26014 9.37934 1.9179 9.58748 1.63821 9.84662C1.37101 10.0942 1.13288 10.3948 0.930419 10.74C0.735227 11.0727 0.577208 11.4198 0.460888 11.7716C0.348547 12.1118 0.254586 12.4838 0.181612 12.8775C0.109187 13.2678 0.0602173 13.6379 0.0359383 13.978C0.0120709 14.3104 0 14.6564 0 15.006C0 15.9148 0.298343 16.6505 0.886662 17.1931C1.46771 17.7285 2.23641 18 3.17149 18H11.8285C12.7633 18 13.532 17.7285 14.1132 17.1931C14.7017 16.6509 15 15.9149 15 15.0059C14.9999 14.6551 14.9877 14.3091 14.9636 13.9776ZM13.3868 16.4539C13.0028 16.8078 12.4931 16.9798 11.8284 16.9798H3.17149C2.50663 16.9798 1.99691 16.8078 1.61311 16.4541C1.23658 16.107 1.0536 15.6332 1.0536 15.006C1.0536 14.6798 1.06471 14.3577 1.08693 14.0485C1.1086 13.7451 1.15291 13.4119 1.21861 13.0578C1.28349 12.708 1.36607 12.3798 1.46428 12.0827C1.55852 11.7978 1.68704 11.5157 1.84643 11.2439C1.99856 10.9849 2.17358 10.7627 2.36672 10.5837C2.54737 10.4162 2.77507 10.2791 3.04337 10.1763C3.29151 10.0812 3.57038 10.0291 3.87311 10.0213C3.91001 10.0403 3.97571 10.0765 4.08216 10.1437C4.29875 10.2804 4.54839 10.4364 4.82438 10.607C5.13548 10.7991 5.53629 10.9726 6.01514 11.1223C6.5047 11.2755 7.004 11.3534 7.49959 11.3534C7.99518 11.3534 8.49461 11.2755 8.9839 11.1224C9.46317 10.9724 9.86384 10.7991 10.1753 10.6068C10.4578 10.432 10.7004 10.2806 10.917 10.1437C11.0235 10.0767 11.0892 10.0403 11.1261 10.0213C11.4289 10.0291 11.7078 10.0812 11.9561 10.1763C12.2242 10.2791 12.4519 10.4163 12.6326 10.5837C12.8257 10.7626 13.0008 10.9848 13.1529 11.2441C13.3124 11.5157 13.4411 11.7979 13.5352 12.0826C13.6335 12.3801 13.7162 12.7082 13.781 13.0576C13.8465 13.4124 13.891 13.7458 13.9127 14.0486V14.0489C13.935 14.3569 13.9463 14.6789 13.9464 15.006C13.9463 15.6333 13.7633 16.107 13.3868 16.4539Z" fill="white"/>
</svg>
