<svg width="20" height="24" viewBox="0 0 20 24" fill="none" xmlns="http://www.w3.org/2000/svg">
<path d="M16.4406 14.3215C16.1696 14.0504 15.9999 13.6913 15.9629 13.3102C15.9616 13.2965 15.9715 13.3805 15.8269 12.178C18.0704 11.6327 19.7412 9.60707 19.7412 7.19822C19.7412 4.00029 16.827 1.56734 13.6664 2.16239C11.6005 -0.258554 8.03374 -0.502684 5.69299 1.66591C4.67021 2.61339 4.032 3.89531 3.8953 5.2763C2.88522 13.6736 2.93046 13.297 2.92912 13.3102C2.8921 13.6913 2.72244 14.0504 2.45144 14.3214L1.14999 15.6228C0.575309 16.1975 0.258789 16.9616 0.258789 17.7745C0.258789 19.4523 1.6238 20.8173 3.30164 20.8173H5.86409C6.18112 22.4922 7.64931 23.8182 9.44599 23.8182C11.2416 23.8182 12.7107 22.493 13.0279 20.8173H15.5903C17.2681 20.8173 18.6331 19.4523 18.6331 17.7745C18.6331 16.9616 18.3167 16.1975 17.7419 15.6228L16.4406 14.3215ZM18.3562 7.19818C18.3562 9.26013 16.6787 10.9377 14.6167 10.9377C12.5547 10.9377 10.8772 9.26013 10.8772 7.19818C10.8772 5.13623 12.5547 3.45866 14.6167 3.45866C16.6787 3.45866 18.3562 5.13623 18.3562 7.19818ZM9.44599 22.4332C8.43498 22.4332 7.57692 21.7529 7.28797 20.8174H11.604C11.3151 21.7529 10.457 22.4332 9.44599 22.4332ZM15.5903 19.4324H3.30164C2.3875 19.4324 1.64379 18.6887 1.64379 17.7745C1.64379 17.3316 1.81623 16.9153 2.12933 16.6022L3.43082 15.3008C3.92633 14.8052 4.23722 14.1491 4.30684 13.4524C5.31207 5.09514 5.27168 5.43188 5.27297 5.41877C5.48377 3.25821 7.31682 1.56582 9.44603 1.56582C10.4694 1.56582 11.4612 1.96595 12.2293 2.66496C10.6031 3.52491 9.4922 5.2341 9.4922 7.19818C9.4922 9.96772 11.7007 12.2308 14.4489 12.3196L14.5852 13.4524C14.6549 14.1491 14.9657 14.8052 15.4613 15.3008L16.7627 16.6022C17.0758 16.9152 17.2483 17.3316 17.2483 17.7745C17.2482 18.6887 16.5045 19.4324 15.5903 19.4324Z" fill="white"/>
<path d="M14.9857 9.73754C14.6033 9.73754 14.2932 9.42748 14.2932 9.04503V6.04419H13.6422C13.2598 6.04419 12.9497 5.73413 12.9497 5.35168C12.9497 4.96924 13.2598 4.65918 13.6422 4.65918H14.9857C15.3682 4.65918 15.6782 4.96924 15.6782 5.35168V9.04503C15.6782 9.42748 15.3682 9.73754 14.9857 9.73754Z" fill="white"/>
</svg>
