<svg width="22" height="22" viewBox="0 0 22 22" fill="none" xmlns="http://www.w3.org/2000/svg">
<path d="M12.8666 5.13414L12.9641 5.00801L12.812 5.05587L12.812 5.05587L12.812 5.05587L12.8119 5.05592L12.811 5.05618L12.8074 5.05728L12.7925 5.06158C12.7792 5.06529 12.7595 5.07058 12.7341 5.07672C12.6833 5.08902 12.6097 5.10474 12.5195 5.11823C12.3389 5.14525 12.0928 5.16311 11.8295 5.1273C11.5663 5.0915 11.2872 5.00229 11.0386 4.81623C10.7904 4.6305 10.5698 4.34617 10.4262 3.91534L10.3737 3.75775L10.3305 3.91812L10.3305 3.91813L10.3305 3.91815L10.3304 3.91826L10.3302 3.91902L10.3293 3.9224L10.3251 3.93632C10.3213 3.94865 10.3153 3.96691 10.307 3.99006C10.2904 4.03638 10.2644 4.10218 10.2271 4.17928C10.1522 4.33369 10.0324 4.53216 9.85223 4.71025C9.67235 4.88804 9.43245 5.04544 9.11635 5.11898C8.80021 5.19254 8.40443 5.18303 7.91156 5.02157L7.7646 4.97343L7.85556 5.09849L8.40728 5.85711L8.40678 5.85748L8.41236 5.86306C8.5194 5.9701 8.63495 6.05012 8.79255 6.05012H11.9305C12.0397 6.05012 12.1983 6.01446 12.2814 5.89144L12.8666 5.13414Z" fill="white" stroke="white" stroke-width="0.1"/>
<path d="M12.9774 4.64143L12.9778 4.63994H12.9653C12.8691 4.63994 12.7862 4.66901 12.7274 4.72786C12.6685 4.78672 12.6395 4.86957 12.6395 4.9658C12.6395 5.16984 12.804 5.29167 12.9653 5.29167C13.1693 5.29167 13.2912 5.12716 13.2912 4.9658C13.2912 4.87898 13.2476 4.80615 13.1888 4.75222C13.1301 4.69844 13.0533 4.66041 12.9774 4.64143Z" fill="white" stroke="white" stroke-width="0.1"/>
<path d="M10.3442 4.05021C10.5483 4.05021 10.6701 3.88571 10.6701 3.72435C10.6701 3.62812 10.641 3.54526 10.5822 3.48641C10.5233 3.42755 10.4405 3.39849 10.3442 3.39849C10.1402 3.39849 10.0184 3.56299 10.0184 3.72435C10.0184 3.82058 10.0474 3.90344 10.1063 3.96229C10.1651 4.02114 10.248 4.05021 10.3442 4.05021Z" fill="white" stroke="white" stroke-width="0.1"/>
<path d="M7.75828 5.25724C7.96232 5.25724 8.08415 5.09274 8.08415 4.93138C8.08415 4.84615 8.04204 4.76511 7.98329 4.70637C7.92455 4.64763 7.84351 4.60552 7.75828 4.60552C7.55425 4.60552 7.43242 4.77002 7.43242 4.93138C7.43242 5.13541 7.59692 5.25724 7.75828 5.25724Z" fill="white" stroke="white" stroke-width="0.1"/>
<path d="M9.04936 16.4329H9.68902H9.73902V16.4829V17.0002V17.0502H9.68902H8.5166H8.4666V17.0002V6.48291V6.43291H8.5166H11.4821H11.4822C11.5543 6.43291 12.8821 6.43291 13.8623 7.41307L13.8643 7.41504L13.8642 7.41509C14.4595 8.08038 14.8086 8.98999 14.7045 10.1404C14.7038 10.2399 14.6575 10.8047 14.3317 11.3825C14.0017 11.9677 13.3853 12.5648 12.2468 12.7049L12.2222 12.6089C12.736 12.4034 13.3084 12.1332 13.7137 11.3908C13.7318 11.3547 13.7582 11.3107 13.7833 11.2689L13.7841 11.2675C13.8081 11.2276 13.8308 11.1896 13.8469 11.1587C13.8501 11.1348 13.8607 11.1139 13.867 11.1012C13.8675 11.1003 13.868 11.0993 13.8684 11.0985C13.8785 11.0783 13.8804 11.0723 13.8804 11.0691V11.0573L13.8857 11.0468C13.9018 11.0145 13.9182 10.9735 13.9357 10.9299L13.9362 10.9286C13.9517 10.8898 13.9681 10.8489 13.9847 10.8143C13.9879 10.7903 13.9986 10.7691 14.005 10.7564C14.0055 10.7554 14.0059 10.7545 14.0064 10.7537C14.0164 10.7335 14.0183 10.7274 14.0183 10.7243L14.0183 10.7225C14.0183 10.6901 14.0183 10.643 14.0565 10.5974C14.063 10.5654 14.0693 10.5352 14.0753 10.5063C14.0848 10.4608 14.0936 10.4188 14.1011 10.3789C14.1139 10.3105 14.1218 10.2539 14.1218 10.207V10.2008L14.1222 10.2008C14.1389 10.0666 14.139 9.9317 14.1347 9.82982C14.1326 9.779 14.1295 9.7367 14.1268 9.70718C14.1255 9.69243 14.1243 9.68089 14.1235 9.6731L14.1225 9.6643L14.1222 9.66213L14.1222 9.66163L14.1222 9.66153L9.04936 16.4329ZM9.04936 16.4329V12.6898V12.207V7.05015H11.4821V7.05017L11.4836 7.05013L11.4836 7.05013L11.4836 7.05013L11.4837 7.05013L11.4842 7.05012L11.4864 7.05007L11.4958 7.04997C11.5041 7.04992 11.5167 7.04995 11.533 7.05028C11.5658 7.05093 11.6137 7.05277 11.6737 7.05754C11.794 7.06707 11.9626 7.08828 12.1557 7.13496C12.5423 7.22842 13.0238 7.42323 13.4115 7.82785L13.411 7.82832L13.4176 7.83326C13.5483 7.93123 13.6471 8.06261 13.7133 8.19493L13.7131 8.19499L13.7151 8.19829C13.8159 8.36636 13.9163 8.56692 13.9838 8.76693V8.79326H13.9823L13.9853 8.80538C14.0545 9.08189 14.1218 9.35202 14.1218 9.65532H14.1214L14.1222 9.66151L9.04936 16.4329Z" fill="white" stroke="white" stroke-width="0.1"/>
<path d="M8.96533 12.2073V12.69V12.2073Z" stroke="white" stroke-width="0.1"/>
<path d="M17.0762 16.8475L17.0682 16.9468C17.0351 16.9468 16.8213 16.9554 16.6047 16.964L16.5988 16.9643C16.3895 16.9726 16.1792 16.981 16.1389 16.9813C16.1383 16.9813 16.1377 16.9813 16.1372 16.9813V16.9313L17.0762 16.8475ZM17.0762 16.8475C16.4376 16.7439 16.0564 16.6671 15.7145 16.5067C15.3734 16.3467 15.0683 16.102 14.587 15.6551L11.9075 12.5686M17.0762 16.8475L11.9075 12.5686M11.9075 12.5686C12.5144 12.2699 13.6014 11.5296 13.6355 9.96707C13.6704 8.77787 13.1882 8.12419 12.6876 7.76981C12.4386 7.59349 12.1865 7.49228 11.9947 7.43511C11.8987 7.40651 11.8175 7.38885 11.759 7.37832C11.7022 7.36812 11.6637 7.36406 11.6544 7.36406L11.6378 7.46121C11.925 7.56258 12.2699 7.74795 12.5471 8.07974C12.8236 8.41076 13.0356 8.89082 13.0527 9.58709C13.0527 9.76006 13.0525 9.92734 13.0192 10.0939L13.0182 10.0937V10.1037V10.1039V10.1041V10.1043V10.1045V10.1047V10.1049V10.1051V10.1053V10.1055V10.1057V10.1059V10.1061V10.1063V10.1065V10.1067V10.1069V10.107V10.1072V10.1074V10.1076V10.1078V10.108V10.1082V10.1083V10.1085V10.1087V10.1089V10.1091V10.1093V10.1094V10.1096V10.1098V10.11V10.1102V10.1103V10.1105V10.1107V10.1109V10.111V10.1112V10.1114V10.1115V10.1117V10.1119V10.1121V10.1122V10.1124V10.1126V10.1127V10.1129V10.1131V10.1132V10.1134V10.1136V10.1137V10.1139V10.114V10.1142V10.1144V10.1145V10.1147V10.1148V10.115V10.1152V10.1153V10.1155V10.1156V10.1158V10.1159V10.1161V10.1163V10.1164V10.1166V10.1167V10.1169V10.117V10.1172V10.1173V10.1175V10.1176V10.1178V10.1179V10.1181V10.1182V10.1184V10.1185V10.1186V10.1188V10.1189V10.1191V10.1192V10.1194V10.1195V10.1196V10.1198V10.1199V10.1201V10.1202V10.1204V10.1205V10.1206V10.1208V10.1209V10.121V10.1212V10.1213V10.1214V10.1216V10.1217V10.1219V10.122V10.1221V10.1223V10.1224V10.1225V10.1226V10.1228V10.1229V10.123V10.1232V10.1233V10.1234V10.1236V10.1237V10.1238V10.1239V10.1241V10.1242V10.1243V10.1244V10.1246V10.1247V10.1248V10.1249V10.1251V10.1252V10.1253V10.1254V10.1256V10.1257V10.1258V10.1259V10.126V10.1262V10.1263V10.1264V10.1265V10.1266V10.1268V10.1269V10.127V10.1271V10.1272V10.1273V10.1275V10.1276V10.1277V10.1278V10.1279V10.128V10.1282V10.1283V10.1284V10.1285V10.1286V10.1287V10.1288V10.129V10.1291V10.1292V10.1293V10.1294V10.1295V10.1296V10.1297V10.1299V10.13V10.1301V10.1302V10.1303V10.1304V10.1305V10.1306V10.1307V10.1308V10.131V10.1311V10.1312V10.1313V10.1314V10.1315V10.1316V10.1317V10.1318V10.1319V10.132V10.1321V10.1322V10.1323V10.1325V10.1326V10.1327V10.1328V10.1329V10.133V10.1331V10.1332V10.1333V10.1334V10.1335V10.1336V10.1337V10.1338V10.1339V10.134V10.1341V10.1342V10.1343V10.1344V10.1345V10.1346V10.1347V10.1348V10.135V10.1351V10.1352V10.1353V10.1354V10.1355V10.1356V10.1357V10.1358V10.1359V10.136V10.1361V10.1362V10.1363V10.1364V10.1365V10.1366V10.1367V10.1368V10.1369V10.137V10.1371V10.1372V10.1373V10.1374V10.1375V10.1376V10.1377V10.1378V10.1379V10.138V10.1381V10.1382V10.1383V10.1384V10.1385V10.1386V10.1387V10.1388V10.1389V10.139V10.1391V10.1392V10.1393V10.1394V10.1395V10.1396V10.1397V10.1398V10.1399V10.14V10.1401V10.1402V10.1403V10.1404V10.1405V10.1406V10.1407V10.1408V10.1409V10.141V10.1411V10.1412V10.1413V10.1414V10.1416V10.1417V10.1418V10.1419V10.142V10.1421V10.1422V10.1423V10.1424V10.1425V10.1426V10.1427V10.1428V10.1429V10.143V10.1431V10.1432V10.1433V10.1434V10.1435V10.1436V10.1437V10.1438V10.1439V10.1441V10.1442V10.1443V10.1444V10.1445V10.1446V10.1447V10.1448V10.1449V10.145V10.1451V10.1452V10.1453V10.1454V10.1456V10.1457V10.1458V10.1459V10.146V10.1461V10.1462V10.1463V10.1464V10.1465V10.1467V10.1468V10.1469V10.147V10.1471V10.1472V10.1473V10.1474V10.1476V10.1477V10.1478V10.1479V10.148V10.1481V10.1482V10.1484V10.1485V10.1486V10.1487V10.1488V10.1489V10.149V10.1492V10.1493V10.1494V10.1495V10.1496V10.1498V10.1499V10.15V10.1501V10.1502V10.1504V10.1505V10.1506V10.1507V10.1508V10.151V10.1511V10.1512V10.1513V10.1515V10.1516V10.1517V10.1518V10.152V10.1521V10.1522V10.1523V10.1525V10.1526V10.1527V10.1528V10.153V10.1531V10.1532V10.1534V10.1535V10.1536V10.1538V10.1539V10.154V10.1541V10.1543V10.1544V10.1545V10.1547V10.1548V10.155V10.1551V10.1552V10.1554V10.1555V10.1556V10.1558V10.1559V10.156V10.1562V10.1563V10.1565V10.1566V10.1568V10.1569V10.157V10.1572V10.1573V10.1575V10.1576V10.1578V10.1579V10.158V10.1582V10.1583V10.1585V10.1586V10.1588V10.1589V10.1591V10.1592V10.1594V10.1595V10.1597V10.1598V10.16V10.1601V10.1603V10.1605V10.1606V10.1608V10.1609V10.1611V10.1612V10.1614V10.1616V10.1617V10.1619V10.162V10.1622V10.1624V10.1625V10.1627V10.1628V10.163V10.1632V10.1633V10.1635V10.1637V10.1638V10.164V10.1642V10.1643V10.1645V10.1647V10.1649V10.165V10.1652V10.1654V10.1655V10.1657V10.1659V10.1661V10.1662V10.1664V10.1666V10.1668V10.167V10.1671V10.1673V10.1675V10.1677V10.1679V10.1681V10.1682V10.1684V10.1686V10.1688V10.169V10.1692V10.1694V10.1695V10.1697V10.1699V10.1701V10.1703V10.1705V10.1707V10.1709V10.1711V10.1713V10.1715V10.1717V10.1719V10.1721V10.1723V10.1725V10.1727V10.2072V10.2337C13.0028 10.2821 12.9942 10.33 12.9867 10.3714C12.986 10.3756 12.9853 10.3796 12.9845 10.3836C12.9757 10.4322 12.9681 10.4681 12.9545 10.4951L12.9541 10.4949L12.9518 10.5017L12.8569 10.7866C12.8539 10.7881 12.851 10.7898 12.8481 10.7916C12.8345 10.8007 12.826 10.8125 12.8209 10.8227C12.8159 10.8328 12.8136 10.8422 12.8125 10.8487L11.9075 12.5686ZM12.8125 10.8492C12.6278 11.2633 12.269 11.5646 11.943 11.7636C11.7796 11.8634 11.6258 11.9366 11.5088 11.9847C11.4503 12.0088 11.4013 12.0265 11.3652 12.0381C11.3471 12.0439 11.3327 12.0481 11.3221 12.0507C11.3152 12.0525 11.3113 12.0532 11.3096 12.0535V12.0524L11.2984 12.055L10.8501 12.1584L10.7692 12.1771L10.8235 12.2399L14.1632 16.096L12.8125 10.8492Z" fill="white" stroke="white" stroke-width="0.1"/>
<path d="M15.5217 17.1191L15.526 17.0201L15.1471 16.9512C15.147 16.9512 15.147 16.9512 15.1469 16.9512C14.7943 16.884 14.4821 16.7156 14.2444 16.5458C14.0062 16.3757 13.8464 16.2067 13.7984 16.1427L13.7985 16.1427L13.7964 16.1401L10.417 12.2091L10.4021 12.1917H10.3791H8.96533H8.91533V12.2417V12.7245V12.7745H8.96533H10.0802L12.8235 15.9978C12.8235 15.9979 12.8236 15.998 12.8236 15.998C13.5234 16.8377 14.4014 17.2241 15.5217 17.1191Z" fill="white" stroke="white" stroke-width="0.1"/>
<path d="M7.96501 17.0502H8.01501V17.0002V6.48291V6.43291H7.96501H6.72363H6.67363V6.48291V7.00015V7.05015H6.72363H7.39777V16.4674H6.75812H6.70812V16.5174V17.0002V17.0502H6.75812H7.96501Z" fill="white" stroke="white" stroke-width="0.1"/>
<path d="M0.95 11C0.95 16.5449 5.45514 21.05 11 21.05C16.5449 21.05 21.05 16.5449 21.05 11C21.05 5.45514 16.5449 0.95 11 0.95C5.45514 0.95 0.95 5.45514 0.95 11ZM1.91207 11C1.91207 5.99313 5.99313 1.91207 11 1.91207C16.0069 1.91207 20.0879 5.99313 20.0879 11C20.0879 16.0069 16.0069 20.0879 11 20.0879C5.99313 20.0879 1.91207 16.0069 1.91207 11Z" fill="white" stroke="white" stroke-width="0.1"/>
</svg>
